<svg width="155" height="22" viewBox="0 0 155 22" fill="none" xmlns="http://www.w3.org/2000/svg">
<path fill-rule="evenodd" clip-rule="evenodd" d="M11.0229 -0.00390625C4.93808 -0.00390625 0.00295827 4.92882 1.32936e-06 11.0136C-0.00258697 16.3399 3.77474 20.7834 8.7976 21.8085V13.0176C8.7976 10.5323 10.8123 8.51758 13.2976 8.51758H21.7524C20.6239 3.63511 16.2492 -0.00390625 11.0229 -0.00390625ZM22.0235 11.5176H13.2976C12.4692 11.5176 11.7976 12.1892 11.7976 13.0176V22.0036C17.3502 21.6126 21.7692 17.1073 22.0235 11.5176Z" fill="#09090B"/>
<path d="M33.6729 19.2578C32.4769 19.2578 31.4385 19.0716 30.5576 18.6992C29.6839 18.3197 29 17.779 28.5059 17.0771C28.0117 16.3753 27.736 15.541 27.6787 14.5742H30.1064C30.1566 15.1543 30.3428 15.6377 30.665 16.0244C30.9945 16.404 31.4206 16.6868 31.9434 16.873C32.4661 17.0592 33.0391 17.1523 33.6621 17.1523C34.3424 17.1523 34.9512 17.0449 35.4883 16.8301C36.0254 16.6152 36.4443 16.3145 36.7451 15.9277C37.0531 15.5339 37.207 15.0755 37.207 14.5527C37.207 14.0801 37.071 13.6934 36.7988 13.3926C36.5339 13.0918 36.1722 12.8447 35.7139 12.6514C35.2555 12.4508 34.7399 12.2754 34.167 12.125L32.2871 11.6094C30.998 11.2656 29.9811 10.7536 29.2363 10.0732C28.4915 9.38574 28.1191 8.48698 28.1191 7.37695C28.1191 6.45312 28.3662 5.64746 28.8604 4.95996C29.3617 4.27246 30.0384 3.73893 30.8906 3.35938C31.75 2.97266 32.7132 2.7793 33.7803 2.7793C34.8688 2.7793 35.8249 2.97266 36.6484 3.35938C37.4792 3.73893 38.1344 4.26172 38.6143 4.92773C39.1012 5.58659 39.3555 6.34212 39.377 7.19434H37.0352C36.9492 6.45671 36.6055 5.88379 36.0039 5.47559C35.4095 5.06738 34.6504 4.86328 33.7266 4.86328C33.082 4.86328 32.5163 4.96712 32.0293 5.1748C31.5495 5.37533 31.1771 5.65462 30.9121 6.0127C30.6543 6.37077 30.5254 6.78255 30.5254 7.24805C30.5254 7.74935 30.6794 8.15755 30.9873 8.47266C31.3024 8.78776 31.682 9.03841 32.126 9.22461C32.5771 9.40365 33.0104 9.55046 33.4258 9.66504L34.9834 10.084C35.4919 10.2129 36.0146 10.3848 36.5518 10.5996C37.0889 10.8145 37.5866 11.0973 38.0449 11.4482C38.5104 11.792 38.8828 12.2217 39.1621 12.7373C39.4486 13.2458 39.5918 13.8617 39.5918 14.585C39.5918 15.4801 39.359 16.2822 38.8936 16.9912C38.4281 17.693 37.7549 18.248 36.874 18.6562C35.9932 19.0573 34.9261 19.2578 33.6729 19.2578ZM47.1809 6.99023V8.87012H40.6282V6.99023H47.1809ZM42.3792 4.13281H44.7102V15.4766C44.7102 16.028 44.8248 16.4326 45.054 16.6904C45.2832 16.9411 45.652 17.0664 46.1604 17.0664C46.2822 17.0664 46.4111 17.0592 46.5471 17.0449C46.6904 17.0306 46.8336 17.0091 46.9768 16.9805L47.4173 18.9141C47.1809 18.9928 46.9231 19.0537 46.6438 19.0967C46.3645 19.1396 46.0852 19.1611 45.8059 19.1611C44.7675 19.1611 43.9368 18.8711 43.3138 18.291C42.6907 17.7038 42.3792 16.9232 42.3792 15.9492V4.13281ZM49.0767 19V6.99023H51.3218V8.91309H51.4507C51.6727 8.26855 52.0595 7.76009 52.6109 7.3877C53.1695 7.00814 53.7997 6.81836 54.5015 6.81836C54.6448 6.81836 54.813 6.82552 55.0064 6.83984C55.2069 6.84701 55.3681 6.85775 55.4898 6.87207V9.10645C55.3967 9.0778 55.2284 9.04915 54.9849 9.02051C54.7486 8.99186 54.5087 8.97754 54.2652 8.97754C53.7138 8.97754 53.2196 9.0957 52.7828 9.33203C52.3531 9.5612 52.0129 9.87988 51.7623 10.2881C51.5188 10.6891 51.397 11.1546 51.397 11.6846V19H49.0767ZM61.575 19.2471C60.4006 19.2471 59.3836 18.9928 58.5243 18.4844C57.6649 17.9759 57.0024 17.2598 56.537 16.3359C56.0786 15.4049 55.8495 14.32 55.8495 13.0811C55.8495 11.8493 56.075 10.7643 56.5262 9.82617C56.9845 8.88802 57.6255 8.15755 58.4491 7.63477C59.2798 7.10482 60.2537 6.83984 61.3709 6.83984C62.0513 6.83984 62.7101 6.95085 63.3475 7.17285C63.9849 7.39486 64.5578 7.74577 65.0662 8.22559C65.5747 8.7054 65.9758 9.32845 66.2694 10.0947C66.5702 10.861 66.7205 11.7848 66.7205 12.8662V13.7041H57.1707V11.9531H65.5174L64.4325 12.5332C64.4325 11.7956 64.3179 11.1439 64.0887 10.5781C63.8595 10.0124 63.5158 9.57194 63.0575 9.25684C62.6063 8.93457 62.0441 8.77344 61.3709 8.77344C60.6978 8.77344 60.1213 8.93457 59.6414 9.25684C59.1688 9.5791 58.8071 10.0052 58.5565 10.5352C58.3058 11.0651 58.1805 11.6452 58.1805 12.2754V13.4678C58.1805 14.2913 58.3237 14.9896 58.6102 15.5625C58.8967 16.1354 59.2941 16.5723 59.8026 16.873C60.3182 17.1738 60.9162 17.3242 61.5965 17.3242C62.0405 17.3242 62.4416 17.2598 62.7996 17.1309C63.1649 17.002 63.48 16.8086 63.745 16.5508C64.0099 16.293 64.2105 15.9743 64.3465 15.5947L66.5594 16.0137C66.3804 16.6582 66.0653 17.224 65.6141 17.7109C65.1629 18.1979 64.5936 18.5775 63.9061 18.8496C63.2258 19.1146 62.4487 19.2471 61.575 19.2471ZM72.0538 19.2578C71.2947 19.2578 70.6072 19.1182 69.9913 18.8389C69.3754 18.5524 68.8885 18.137 68.5304 17.5928C68.1723 17.0485 67.9933 16.3861 67.9933 15.6055C67.9933 14.9251 68.1222 14.3701 68.38 13.9404C68.645 13.5036 68.9995 13.1562 69.4435 12.8984C69.8875 12.6406 70.3816 12.4473 70.9259 12.3184C71.4702 12.1895 72.0288 12.0892 72.6017 12.0176C73.325 11.9388 73.9086 11.8708 74.3527 11.8135C74.7967 11.7562 75.1189 11.6667 75.3195 11.5449C75.5271 11.416 75.631 11.2119 75.631 10.9326V10.8789C75.631 10.1986 75.4376 9.6722 75.0509 9.2998C74.6713 8.92741 74.1056 8.74121 73.3536 8.74121C72.573 8.74121 71.9536 8.91309 71.4952 9.25684C71.0441 9.59342 70.7325 9.97656 70.5607 10.4062L68.3585 9.90137C68.6235 9.1709 69.0066 8.58366 69.5079 8.13965C70.0164 7.68848 70.5965 7.35905 71.2482 7.15137C71.907 6.94368 72.5945 6.83984 73.3107 6.83984C73.7905 6.83984 74.2989 6.89714 74.8361 7.01172C75.3732 7.11914 75.878 7.32324 76.3507 7.62402C76.8305 7.91764 77.2208 8.34017 77.5216 8.8916C77.8224 9.44303 77.9728 10.1556 77.9728 11.0293V19H75.6847V17.3564H75.5988C75.4555 17.6501 75.2299 17.9437 74.922 18.2373C74.6212 18.5309 74.2345 18.7744 73.7618 18.9678C73.2892 19.1611 72.7198 19.2578 72.0538 19.2578ZM72.5587 17.3887C73.2104 17.3887 73.7654 17.2633 74.2238 17.0127C74.6821 16.7549 75.033 16.4183 75.2765 16.0029C75.52 15.5876 75.6417 15.1471 75.6417 14.6816V13.124C75.5558 13.2028 75.3946 13.278 75.1583 13.3496C74.922 13.4212 74.6534 13.4821 74.3527 13.5322C74.0519 13.5824 73.7583 13.6289 73.4718 13.6719C73.1853 13.7077 72.9454 13.7363 72.7521 13.7578C72.3009 13.8223 71.8891 13.9225 71.5167 14.0586C71.1443 14.1875 70.8435 14.3809 70.6144 14.6387C70.3924 14.8893 70.2814 15.2223 70.2814 15.6377C70.2814 16.2178 70.4962 16.6546 70.9259 16.9482C71.3556 17.2419 71.8999 17.3887 72.5587 17.3887ZM80.4379 19V6.99023H82.6615V8.9668H82.8227C83.0733 8.30078 83.4815 7.78158 84.0473 7.40918C84.6202 7.02962 85.3005 6.83984 86.0883 6.83984C86.8904 6.83984 87.56 7.02962 88.0971 7.40918C88.6413 7.78158 89.046 8.30078 89.3109 8.9668H89.4398C89.7263 8.3151 90.1811 7.79948 90.8041 7.41992C91.4271 7.0332 92.1684 6.83984 93.0277 6.83984C94.1163 6.83984 95.0079 7.18359 95.7025 7.87109C96.3972 8.55143 96.7445 9.5791 96.7445 10.9541V19H94.4027V11.1689C94.4027 10.3525 94.1807 9.7653 93.7367 9.40723C93.2927 9.04199 92.7628 8.85938 92.1469 8.85938C91.3878 8.85938 90.7969 9.0957 90.3744 9.56836C89.959 10.0339 89.7514 10.6247 89.7514 11.3408V19H87.4096V11.0186C87.4096 10.3669 87.209 9.84408 86.808 9.4502C86.407 9.05632 85.8806 8.85938 85.2289 8.85938C84.7849 8.85938 84.3731 8.97754 83.9936 9.21387C83.6212 9.44303 83.3204 9.7653 83.0912 10.1807C82.8692 10.5889 82.7582 11.0615 82.7582 11.5986V19H80.4379ZM101.519 2.99414V19H99.1989V2.99414H101.519ZM103.974 19V6.99023H106.294V19H103.974ZM105.144 5.14258C104.736 5.14258 104.389 5.00651 104.103 4.73438C103.816 4.46224 103.673 4.13639 103.673 3.75684C103.673 3.37012 103.816 3.04069 104.103 2.76855C104.389 2.49642 104.736 2.36035 105.144 2.36035C105.546 2.36035 105.889 2.49642 106.176 2.76855C106.469 3.04069 106.616 3.37012 106.616 3.75684C106.616 4.13639 106.469 4.46224 106.176 4.73438C105.889 5.00651 105.546 5.14258 105.144 5.14258ZM111.069 11.8779V19H108.748V6.99023H111.004V8.9668H111.165C111.437 8.3151 111.864 7.79948 112.444 7.41992C113.024 7.0332 113.768 6.83984 114.678 6.83984C115.494 6.83984 116.207 7.01172 116.816 7.35547C117.432 7.69206 117.908 8.19694 118.244 8.87012C118.588 9.54329 118.76 10.3776 118.76 11.373V19H116.44V11.6523C116.44 10.7858 116.211 10.1055 115.752 9.61133C115.294 9.11003 114.671 8.85938 113.883 8.85938C113.346 8.85938 112.863 8.98112 112.433 9.22461C112.01 9.46094 111.677 9.80111 111.434 10.2451C111.19 10.6891 111.069 11.2334 111.069 11.8779ZM126.381 19.2471C125.207 19.2471 124.19 18.9928 123.331 18.4844C122.471 17.9759 121.809 17.2598 121.343 16.3359C120.885 15.4049 120.656 14.32 120.656 13.0811C120.656 11.8493 120.881 10.7643 121.333 9.82617C121.791 8.88802 122.432 8.15755 123.255 7.63477C124.086 7.10482 125.06 6.83984 126.177 6.83984C126.858 6.83984 127.516 6.95085 128.154 7.17285C128.791 7.39486 129.364 7.74577 129.873 8.22559C130.381 8.7054 130.782 9.32845 131.076 10.0947C131.376 10.861 131.527 11.7848 131.527 12.8662V13.7041H121.977V11.9531H130.324L129.239 12.5332C129.239 11.7956 129.124 11.1439 128.895 10.5781C128.666 10.0124 128.322 9.57194 127.864 9.25684C127.413 8.93457 126.85 8.77344 126.177 8.77344C125.504 8.77344 124.928 8.93457 124.448 9.25684C123.975 9.5791 123.613 10.0052 123.363 10.5352C123.112 11.0651 122.987 11.6452 122.987 12.2754V13.4678C122.987 14.2913 123.13 14.9896 123.417 15.5625C123.703 16.1354 124.1 16.5723 124.609 16.873C125.125 17.1738 125.723 17.3242 126.403 17.3242C126.847 17.3242 127.248 17.2598 127.606 17.1309C127.971 17.002 128.286 16.8086 128.551 16.5508C128.816 16.293 129.017 15.9743 129.153 15.5947L131.366 16.0137C131.187 16.6582 130.872 17.224 130.42 17.7109C129.969 18.1979 129.4 18.5775 128.712 18.8496C128.032 19.1146 127.255 19.2471 126.381 19.2471Z" fill="#09090B"/>
</svg>
