<?xml version="1.0" encoding="UTF-8"?>
<svg width="256px" height="256px" viewBox="0 0 256 256" version="1.1" xmlns="http://www.w3.org/2000/svg" xmlns:xlink="http://www.w3.org/1999/xlink" preserveAspectRatio="xMidYMid">
    <g>
        <path d="M128,0 C57.307,0 0,57.307 0,128 C0,198.693 57.307,256 128,256 C198.693,256 256,198.693 256,128 C256,57.307 198.693,0 128,0 Z M128,240 C66.144,240 16,189.856 16,128 C16,66.144 66.144,16 128,16 C189.856,16 240,66.144 240,128 C240,189.856 189.856,240 128,240 Z" fill="#3B99FC"></path>
        <path d="M128,32 C77.152,32 36,73.152 36,124 C36,174.848 77.152,216 128,216 C178.848,216 220,174.848 220,124 C220,73.152 178.848,32 128,32 Z M128,200 C93.49,200 65.6,172.11 65.6,137.6 C65.6,103.09 93.49,75.2 128,75.2 C162.51,75.2 190.4,103.09 190.4,137.6 C190.4,172.11 162.51,200 128,200 Z" fill="#3B99FC"></path>
        <path d="M128,64 C83.817,64 48,99.817 48,144 C48,188.183 83.817,224 128,224 C172.183,224 208,188.183 208,144 C208,99.817 172.183,64 128,64 Z M128,208 C94.863,208 68,181.137 68,148 C68,114.863 94.863,88 128,88 C161.137,88 188,114.863 188,148 C188,181.137 161.137,208 128,208 Z" fill="#3B99FC"></path>
    </g>
</svg> 